# xmcd
#
# Track frame offsets:
# 150
# 21542
# 32310
# 50895
# 66930
# 89107
# 109135
# 127952
# 147262
# 171467
# 189300
#
# Disc length: 2823 seconds
#
#
# Revision: 0
# Processed by: cddbd v1.5.2PL0 Copyright (c) Steve Scherf et al.
# Submitted via: Nero 7, 11, 10, 0 
#
DISCID=a30b050b
DTITLE=Geno Washington - Change Your Thoughts You Change Your Life
DYEAR=1998
DGENRE=Blues
TTITLE0=Change Your Thoughts You Change Your Life
TTITLE1=Uncle Leo
TTITLE2=Blues Man Cryin'
TTITLE3=Wheels Of Life
TTITLE4=Wake Me When The Morning Comes
TTITLE5=Bad Love
TTITLE6=The Blues Walks With Me
TTITLE7=99 Years
TTITLE8=Meet Me At The Crossroads
TTITLE9=Love For Sale
TTITLE10=Mr Policeman
EXTD=
EXTT0=Change Your Thoughts You Change Your Life
EXTT1=Uncle Leo
EXTT2=Blues Man Cryin'
EXTT3=Wheels Of Life
EXTT4=Wake Me When The Morning Comes
EXTT5=Bad Love
EXTT6=The Blues Walks With Me
EXTT7=99 Years
EXTT8=Meet Me At The Crossroads
EXTT9=Love For Sale
EXTT10=Mr Policeman
PLAYORDER=
